<?xml version="1.0" ?><svg viewBox="0 0 64 64" xmlns="http://www.w3.org/2000/svg"><defs><style>.cls-1{fill:#dbeffc;}.cls-2{fill:#4c241d;}.cls-3,.cls-7{fill:none;}.cls-3,.cls-4,.cls-5,.cls-6,.cls-7{stroke:#4c241d;stroke-linejoin:round;stroke-width:2px;}.cls-3,.cls-4,.cls-5,.cls-6{stroke-linecap:round;}.cls-4{fill:#6b4f5b;}.cls-5{fill:#bd53b5;}.cls-6{fill:#a9ba5a;}</style></defs><g id="pc-system"><circle class="cls-1" cx="34" cy="30" r="23"/><path class="cls-2" d="M34,7a1,1,0,1,1-1-1A1,1,0,0,1,34,7Z"/><line class="cls-3" x1="18.5858" x2="21.4142" y1="11.5858" y2="14.4142"/><line class="cls-3" x1="21.4142" x2="18.5858" y1="11.5858" y2="14.4142"/><rect class="cls-4" height="23" width="46" x="9" y="21"/><rect class="cls-5" height="22" width="9" x="2" y="28"/><rect class="cls-4" height="4" width="6" x="29" y="44"/><line class="cls-3" x1="39" x2="25" y1="48" y2="48"/><circle class="cls-4" cx="6.5" cy="34.5" r="1.5"/><circle class="cls-4" cx="6.5" cy="42.5" r="3.5"/><rect class="cls-5" height="22" width="9" x="53" y="28"/><circle class="cls-4" cx="57.5" cy="34.5" r="1.5"/><circle class="cls-4" cx="57.5" cy="42.5" r="3.5"/><polygon class="cls-4" points="37 57 17 57 18 51 36 51 37 57"/><path class="cls-4" d="M45.5,53h0A2.5,2.5,0,0,1,48,55.5V56a0,0,0,0,1,0,0H43a0,0,0,0,1,0,0v-.5A2.5,2.5,0,0,1,45.5,53Z"/><polygon class="cls-6" points="45 40 39 40 39 29 42 27 45 29 45 40"/><path class="cls-2" d="M43,31a1,1,0,1,1-1-1A1,1,0,0,1,43,31Z"/><path class="cls-3" d="M38,21V19a2,2,0,0,1,2-2h0a2,2,0,0,1,2,2v8"/><line class="cls-3" x1="20" x2="34" y1="54" y2="54"/><line class="cls-7" x1="31" x2="31" y1="51" y2="57"/><circle class="cls-3" cx="43" cy="11" r="2"/></g></svg>